<svg width="145" height="145" viewBox="0 0 145 145" fill="none" xmlns="http://www.w3.org/2000/svg">
<g clip-path="url(#clip0_24_283)">
<path d="M0 126.303C0 136.63 8.37063 145 18.6964 145H126.303C136.63 145 145 136.629 145 126.303V18.6964C145 8.3695 136.629 0 126.303 0H18.6964C8.3695 0 0 8.37063 0 18.6964V126.303Z" fill="#563D7C"/>
<path d="M60.128 64.1387V43.6046H78.2031C79.9245 43.6046 81.584 43.748 83.183 44.0349C84.7814 44.3218 86.1951 44.8342 87.4248 45.5719C88.6545 46.3097 89.6383 47.3343 90.3758 48.6459C91.1138 49.9575 91.4825 51.6379 91.4825 53.6872C91.4825 57.3758 90.3758 60.0402 88.1628 61.6794C85.9493 63.3191 83.1213 64.1387 79.6786 64.1387H60.128ZM40.8233 28.6035V116.396H83.3671C87.3019 116.396 91.1342 115.905 94.864 114.921C98.5938 113.937 101.913 112.421 104.824 110.372C107.734 108.322 110.049 105.678 111.771 102.441C113.493 99.2027 114.353 95.3704 114.353 90.9439C114.353 85.4514 113.021 80.7588 110.357 76.8653C107.693 72.9712 103.656 70.2457 98.2454 68.6881C102.18 66.8031 105.152 64.3845 107.16 61.4336C109.168 58.4826 110.172 54.7939 110.172 50.3673C110.172 46.2687 109.496 42.8258 108.143 40.0387C106.791 37.2516 104.885 35.0179 102.426 33.3374C99.9667 31.657 97.0158 30.4479 93.5726 29.7102C90.13 28.9724 86.318 28.6035 82.1374 28.6035H40.8233ZM60.128 101.395V77.2952H81.1541C85.3348 77.2952 88.6953 78.2586 91.2367 80.185C93.7776 82.1113 95.0486 85.3285 95.0486 89.8371C95.0486 92.1328 94.6589 94.0178 93.8801 95.4933C93.1013 96.9688 92.0563 98.1372 90.7445 98.9976C89.4333 99.8586 87.9164 100.473 86.1951 100.842C84.4738 101.211 82.6704 101.395 80.7848 101.395H60.128Z" fill="white"/>
</g>
<defs>
<clipPath id="clip0_24_283">
<rect width="145" height="145" fill="white"/>
</clipPath>
</defs>
</svg>
