<svg width="1440" height="1051" viewBox="0 0 1440 1051" fill="none" xmlns="http://www.w3.org/2000/svg">
<g clip-path="url(#clip0_39_4)">
<mask id="mask0_39_4" style="mask-type:alpha" maskUnits="userSpaceOnUse" x="13" y="0" width="1428" height="532">
<path d="M1440.29 0H13V531.517H1440.29V0Z" fill="#D9D9D9"/>
</mask>
<g mask="url(#mask0_39_4)">
<path fill-rule="evenodd" clip-rule="evenodd" d="M796.169 -36.7129V0.638535L747.484 0.638532V1.3071L796.169 1.30711V49.882H747.484V50.5506H796.169V99.1256H747.484V99.7942H796.169V148.369H747.484V149.037H796.169V197.612H747.484V198.281H796.169V246.856H747.484V247.525H796.169V296.099H747.484V296.768H796.169V345.342H747.484V346.011H796.169V383.364H797.077V346.011H863.045V383.364H863.953V346.011H929.915V383.364H930.823V346.011H996.785V383.364H997.693V346.011H1063.66V383.364H1064.57V346.011H1130.54V383.364H1131.45V346.011H1197.41V383.364H1198.32V346.011H1264.28V383.364H1265.19V346.011H1317.96V345.342H1265.19V296.768H1317.96V296.099H1265.19V247.525H1317.96V246.856H1265.19V198.281H1317.96V197.612H1265.19V149.037H1317.96V148.369H1265.19V99.7942H1317.96V99.1256H1265.19V50.5506H1317.96V49.882H1265.19V1.30713H1317.96V0.63855L1265.19 0.638547V-36.7129H1264.28V0.638547H1198.32V-36.7129H1197.41V0.638547L1131.45 0.638545V-36.7129H1130.54V0.638545L1064.57 0.638542V-36.7129H1063.66V0.638542L997.693 0.63854V-36.7129H996.785V0.63854L930.823 0.638537V-36.7129H929.915V0.638537L863.953 0.638535V-36.7129H863.045V0.638535H797.077V-36.7129H796.169ZM1264.28 345.342V296.768H1198.32V345.342H1264.28ZM1197.41 345.342V296.768H1131.45V345.342H1197.41ZM1130.54 345.342V296.768H1064.57V345.342H1130.54ZM1063.66 345.342V296.768H997.693V345.342H1063.66ZM996.785 345.342V296.768H930.823V345.342H996.785ZM929.915 345.342V296.768H863.953V345.342H929.915ZM863.045 345.342V296.768H797.077V345.342H863.045ZM863.045 296.099H797.077V247.525H863.045V296.099ZM929.915 296.099H863.953V247.525H929.915V296.099ZM996.785 296.099H930.823V247.525H996.785V296.099ZM1063.66 296.099H997.693V247.525H1063.66V296.099ZM1130.54 296.099H1064.57V247.525H1130.54V296.099ZM1197.41 296.099H1131.45V247.525H1197.41V296.099ZM1264.28 296.099H1198.32V247.525H1264.28V296.099ZM1264.28 246.856V198.281H1198.32V246.856H1264.28ZM1197.41 246.856V198.281H1131.45V246.856H1197.41ZM1130.54 246.856V198.281H1064.57V246.856H1130.54ZM1063.66 246.856V198.281H997.693V246.856H1063.66ZM996.785 246.856V198.281H930.823V246.856H996.785ZM929.915 246.856V198.281H863.953V246.856H929.915ZM863.045 246.856V198.281H797.077V246.856H863.045ZM863.045 197.612H797.077V149.037H863.045V197.612ZM929.915 197.612H863.953V149.037H929.915V197.612ZM996.785 197.612H930.823V149.037H996.785V197.612ZM1063.66 197.612H997.693V149.037H1063.66V197.612ZM1130.54 197.612H1064.57V149.037H1130.54V197.612ZM1197.41 197.612H1131.45V149.037H1197.41V197.612ZM1264.28 197.612H1198.32V149.037H1264.28V197.612ZM1264.28 148.369V99.7942H1198.32V148.369H1264.28ZM1197.41 148.369V99.7942H1131.45V148.369H1197.41ZM1130.54 148.369V99.7942H1064.57V148.369H1130.54ZM1063.66 148.369V99.7942H997.693V148.369H1063.66ZM996.785 148.369V99.7942H930.823V148.369H996.785ZM929.915 148.369V99.7942H863.953V148.369H929.915ZM863.045 148.369V99.7942H797.077V148.369H863.045ZM863.045 99.1256H797.077V50.5506H863.045V99.1256ZM929.915 99.1256H863.953V50.5506H929.915V99.1256ZM996.785 99.1256H930.823V50.5506H996.785V99.1256ZM1063.66 99.1256H997.693V50.5506H1063.66V99.1256ZM1130.54 99.1256H1064.57V50.5506H1130.54V99.1256ZM1197.41 99.1256H1131.45V50.5506H1197.41V99.1256ZM1264.28 99.1256H1198.32V50.5506H1264.28V99.1256ZM1264.28 49.882V1.30713H1198.32V49.882H1264.28ZM1197.41 49.882V1.30713L1131.45 1.30712V49.882H1197.41ZM1130.54 49.882V1.30712H1064.57V49.882H1130.54ZM1063.66 49.882V1.30712L997.693 1.30711V49.882H1063.66ZM996.785 49.882V1.30711H930.823V49.882H996.785ZM929.915 49.882V1.30711H863.953V49.882H929.915ZM863.045 49.882V1.30711H797.077V49.882H863.045Z" fill="url(#paint0_radial_39_4)"/>
<path fill-rule="evenodd" clip-rule="evenodd" d="M460.23 167.871V205.222H411.545V205.891H460.23V254.466H411.545V255.134H460.23V303.71H411.545V304.378H460.23V352.953H411.545V353.621H460.23V402.196H411.545V402.865H460.23V451.44H411.545V452.108H460.23V500.683H411.545V501.352H460.23V549.926H411.545V550.595H460.23V587.948H461.138V550.595H527.105V587.948H528.013V550.595H593.974V587.948H594.882V550.595H660.85V587.948H661.758V550.595H727.726V587.948H728.634V550.595H794.601V587.948H795.509V550.595H861.47V587.948H862.378V550.595H928.344V587.948H929.252V550.595H982.022V549.926H929.252V501.352H982.022V500.683H929.252V452.108H982.022V451.44H929.252V402.865H982.022V402.196H929.252V353.621H982.022V352.953H929.252V304.378H982.022V303.71H929.252V255.134H982.022V254.466H929.252V205.891H982.022V205.222H929.252V167.871H928.344V205.222H862.378V167.871H861.47V205.222H795.509V167.871H794.601V205.222H728.634V167.871H727.726V205.222H661.758V167.871H660.85V205.222H594.882V167.871H593.974V205.222H528.013V167.871H527.105V205.222H461.138V167.871H460.23ZM928.344 549.926V501.352H862.378V549.926H928.344ZM861.47 549.926V501.352H795.509V549.926H861.47ZM794.601 549.926V501.352H728.634V549.926H794.601ZM727.726 549.926V501.352H661.758V549.926H727.726ZM660.85 549.926V501.352H594.882V549.926H660.85ZM593.974 549.926V501.352H528.013V549.926H593.974ZM527.105 549.926V501.352H461.138V549.926H527.105ZM527.105 500.683H461.138V452.108H527.105V500.683ZM593.974 500.683H528.013V452.108H593.974V500.683ZM660.85 500.683H594.882V452.108H660.85V500.683ZM727.726 500.683H661.758V452.108H727.726V500.683ZM794.601 500.683H728.634V452.108H794.601V500.683ZM861.47 500.683H795.509V452.108H861.47V500.683ZM928.344 500.683H862.378V452.108H928.344V500.683ZM928.344 451.44V402.865H862.378V451.44H928.344ZM861.47 451.44V402.865H795.509V451.44H861.47ZM794.601 451.44V402.865H728.634V451.44H794.601ZM727.726 451.44V402.865H661.758V451.44H727.726ZM660.85 451.44V402.865H594.882V451.44H660.85ZM593.974 451.44V402.865H528.013V451.44H593.974ZM527.105 451.44V402.865H461.138V451.44H527.105ZM527.105 402.196H461.138V353.621H527.105V402.196ZM593.974 402.196H528.013V353.621H593.974V402.196ZM660.85 402.196H594.882V353.621H660.85V402.196ZM727.726 402.196H661.758V353.621H727.726V402.196ZM794.601 402.196H728.634V353.621H794.601V402.196ZM861.47 402.196H795.509V353.621H861.47V402.196ZM928.344 402.196H862.378V353.621H928.344V402.196ZM928.344 352.953V304.378H862.378V352.953H928.344ZM861.47 352.953V304.378H795.509V352.953H861.47ZM794.601 352.953V304.378H728.634V352.953H794.601ZM727.726 352.953V304.378H661.758V352.953H727.726ZM660.85 352.953V304.378H594.882V352.953H660.85ZM593.974 352.953V304.378H528.013V352.953H593.974ZM527.105 352.953V304.378H461.138V352.953H527.105ZM527.105 303.71H461.138V255.134H527.105V303.71ZM593.974 303.71H528.013V255.134H593.974V303.71ZM660.85 303.71H594.882V255.134H660.85V303.71ZM727.726 303.71H661.758V255.134H727.726V303.71ZM794.601 303.71H728.634V255.134H794.601V303.71ZM861.47 303.71H795.509V255.134H861.47V303.71ZM928.344 303.71H862.378V255.134H928.344V303.71ZM928.344 254.466V205.891H862.378V254.466H928.344ZM861.47 254.466V205.891H795.509V254.466H861.47ZM794.601 254.466V205.891H728.634V254.466H794.601ZM727.726 254.466V205.891H661.758V254.466H727.726ZM660.85 254.466V205.891H594.882V254.466H660.85ZM593.974 254.466V205.891H528.013V254.466H593.974ZM527.105 254.466V205.891H461.138V254.466H527.105Z" fill="url(#paint1_radial_39_4)"/>
<g opacity="0.4" filter="url(#filter0_f_39_4)">
<path d="M1101.5 -101.445C972.89 -141.053 827.497 -100.736 776.755 -11.3965C726.013 77.9434 789.138 182.476 917.747 222.083C1046.36 261.691 1191.75 221.375 1242.49 132.035C1293.23 42.6947 1230.11 -61.8378 1101.5 -101.445Z" fill="url(#paint2_linear_39_4)" fill-opacity="0.23"/>
</g>
<g opacity="0.4" filter="url(#filter1_f_39_4)">
<path d="M460.14 -16.0115C585.742 80.9589 749.88 115.802 826.752 61.8124C903.625 7.823 864.122 -114.554 738.521 -211.525C612.919 -308.495 448.782 -343.338 371.909 -289.349C295.036 -235.359 334.539 -112.982 460.14 -16.0115Z" fill="#8244FF"/>
</g>
</g>
</g>
<g clip-path="url(#clip1_39_4)">
<mask id="mask1_39_4" style="mask-type:alpha" maskUnits="userSpaceOnUse" x="0" y="0" width="722" height="1051">
<path d="M1.87459e-05 0L0 1051L721.816 1051L721.816 5.75481e-06L1.87459e-05 0Z" fill="#D9D9D9"/>
</mask>
<g mask="url(#mask1_39_4)">
<path fill-rule="evenodd" clip-rule="evenodd" d="M-49.8571 474.305L0.867176 474.305L0.867171 510.154L1.77511 510.154L1.77512 474.305L67.7412 474.305L67.7412 510.154L68.6492 510.154L68.6492 474.305L134.616 474.305L134.616 510.154L135.523 510.154L135.523 474.305L201.489 474.305L201.489 510.154L202.397 510.154L202.397 474.305L268.363 474.305L268.363 510.154L269.271 510.154L269.271 474.305L335.238 474.305L335.238 510.154L336.146 510.154L336.146 474.305L402.111 474.305L402.111 510.154L403.019 510.154L403.019 474.305L468.985 474.305L468.985 510.154L469.893 510.154L469.893 474.305L520.619 474.305L520.619 473.636L469.893 473.636L469.893 425.06L520.619 425.06L520.619 424.391L469.893 424.391L469.893 375.819L520.619 375.819L520.619 375.151L469.893 375.151L469.893 326.579L520.619 326.579L520.619 325.91L469.893 325.91L469.893 277.332L520.619 277.332L520.619 276.663L469.893 276.663L469.893 228.084L520.619 228.084L520.619 227.416L469.893 227.416L469.893 178.844L520.619 178.844L520.619 178.175L469.893 178.175L469.893 129.603L520.619 129.603L520.619 128.935L469.893 128.935L469.893 90.0771L468.985 90.0771L468.985 128.935L403.019 128.935L403.019 90.0771L402.111 90.0771L402.111 128.935L336.146 128.935L336.146 90.0771L335.238 90.0771L335.238 128.935L269.271 128.935L269.271 90.0771L268.363 90.0771L268.363 128.935L202.397 128.935L202.397 90.0771L201.489 90.0771L201.489 128.935L135.523 128.935L135.523 90.0771L134.616 90.0771L134.616 128.935L68.6492 128.935L68.6492 90.0771L67.7412 90.0771L67.7412 128.935L1.77515 128.935L1.77515 90.0771L0.867203 90.0771L0.867199 128.935L-49.8571 128.935L-49.8571 129.603L0.867199 129.603L0.867198 178.175L-49.8571 178.175L-49.8571 178.844L0.867198 178.844L0.867194 227.416L-49.8571 227.416L-49.8571 228.084L0.867194 228.084L0.86719 276.663L-49.8571 276.663L-49.8571 277.332L0.86719 277.332L0.867185 325.91L-49.8571 325.91L-49.8571 326.579L0.867185 326.579L0.867181 375.151L-49.8571 375.151L-49.8571 375.819L0.867181 375.819L0.867176 424.391L-49.8571 424.391L-49.8571 425.06L0.867176 425.06L0.867176 473.636L-49.8571 473.636L-49.8571 474.305ZM468.985 129.603L403.019 129.603L403.019 178.175L468.985 178.175L468.985 129.603ZM468.985 178.844L403.019 178.844L403.019 227.416L468.985 227.416L468.985 178.844ZM468.985 228.084L403.019 228.084L403.019 276.663L468.985 276.663L468.985 228.084ZM468.985 277.332L403.019 277.332L403.019 325.91L468.985 325.91L468.985 277.332ZM468.985 326.579L403.019 326.579L403.019 375.151L468.985 375.151L468.985 326.579ZM468.985 375.819L403.019 375.819L403.019 424.391L468.985 424.391L468.985 375.819ZM468.985 425.06L403.019 425.06L403.019 473.636L468.985 473.636L468.985 425.06ZM402.111 425.06L402.111 473.636L336.146 473.636L336.146 425.06L402.111 425.06ZM402.111 375.819L402.111 424.391L336.146 424.391L336.146 375.819L402.111 375.819ZM402.111 326.579L402.111 375.151L336.146 375.151L336.146 326.579L402.111 326.579ZM402.111 277.332L402.111 325.91L336.146 325.91L336.146 277.332L402.111 277.332ZM402.111 228.084L402.111 276.663L336.146 276.663L336.146 228.084L402.111 228.084ZM402.111 178.844L402.111 227.416L336.146 227.416L336.146 178.844L402.111 178.844ZM402.111 129.603L402.111 178.175L336.146 178.175L336.146 129.603L402.111 129.603ZM335.238 129.603L269.271 129.603L269.271 178.175L335.238 178.175L335.238 129.603ZM335.238 178.844L269.271 178.844L269.271 227.416L335.238 227.416L335.238 178.844ZM335.238 228.084L269.271 228.084L269.271 276.663L335.238 276.663L335.238 228.084ZM335.238 277.332L269.271 277.332L269.271 325.91L335.238 325.91L335.238 277.332ZM335.238 326.579L269.271 326.579L269.271 375.151L335.238 375.151L335.238 326.579ZM335.238 375.819L269.271 375.819L269.271 424.391L335.238 424.391L335.238 375.819ZM335.238 425.06L269.271 425.06L269.271 473.636L335.238 473.636L335.238 425.06ZM268.363 425.06L268.363 473.636L202.397 473.636L202.397 425.06L268.363 425.06ZM268.363 375.819L268.363 424.391L202.397 424.391L202.397 375.819L268.363 375.819ZM268.363 326.579L268.363 375.151L202.397 375.151L202.397 326.579L268.363 326.579ZM268.363 277.332L268.363 325.91L202.397 325.91L202.397 277.332L268.363 277.332ZM268.363 228.084L268.363 276.663L202.397 276.663L202.397 228.084L268.363 228.084ZM268.363 178.844L268.363 227.416L202.397 227.416L202.397 178.844L268.363 178.844ZM268.363 129.603L268.363 178.175L202.397 178.175L202.397 129.603L268.363 129.603ZM201.489 129.603L135.523 129.603L135.523 178.175L201.489 178.175L201.489 129.603ZM201.489 178.844L135.523 178.844L135.523 227.416L201.489 227.416L201.489 178.844ZM201.489 228.084L135.523 228.084L135.523 276.663L201.489 276.663L201.489 228.084ZM201.489 277.332L135.523 277.332L135.523 325.91L201.489 325.91L201.489 277.332ZM201.489 326.579L135.523 326.579L135.523 375.151L201.489 375.151L201.489 326.579ZM201.489 375.819L135.523 375.819L135.523 424.391L201.489 424.391L201.489 375.819ZM201.489 425.06L135.523 425.06L135.523 473.636L201.489 473.636L201.489 425.06ZM134.616 425.06L134.616 473.636L68.6492 473.636L68.6492 425.06L134.616 425.06ZM134.616 375.819L134.616 424.391L68.6492 424.391L68.6492 375.819L134.616 375.819ZM134.616 326.579L134.616 375.151L68.6492 375.151L68.6492 326.579L134.616 326.579ZM134.616 277.332L134.616 325.91L68.6492 325.91L68.6492 277.332L134.616 277.332ZM134.616 228.084L134.616 276.663L68.6492 276.663L68.6492 228.084L134.616 228.084ZM134.616 178.844L134.616 227.416L68.6492 227.416L68.6492 178.844L134.616 178.844ZM134.616 129.603L134.616 178.175L68.6492 178.175L68.6492 129.603L134.616 129.603ZM67.7412 129.603L1.77515 129.603L1.77515 178.175L67.7412 178.175L67.7412 129.603ZM67.7412 178.844L1.77515 178.844L1.77513 227.416L67.7412 227.416L67.7412 178.844ZM67.7412 228.084L1.77513 228.084L1.77513 276.663L67.7412 276.663L67.7412 228.084ZM67.7412 277.332L1.77513 277.332L1.77513 325.91L67.7412 325.91L67.7412 277.332ZM67.7412 326.579L1.77513 326.579L1.77513 375.151L67.7412 375.151L67.7412 326.579ZM67.7412 375.819L1.77513 375.819L1.77512 424.391L67.7412 424.391L67.7412 375.819ZM67.7412 425.06L1.77512 425.06L1.77512 473.636L67.7412 473.636L67.7412 425.06Z" fill="url(#paint3_radial_39_4)"/>
<path fill-rule="evenodd" clip-rule="evenodd" d="M227.974 721.677L278.698 721.677L278.698 757.527L279.606 757.527L279.606 721.677L345.572 721.677L345.572 757.527L346.48 757.527L346.48 721.677L412.447 721.677L412.447 757.527L413.354 757.527L413.354 721.677L479.32 721.677L479.32 757.527L480.228 757.527L480.228 721.677L546.194 721.677L546.194 757.527L547.102 757.527L547.102 721.677L613.069 721.677L613.069 757.527L613.977 757.527L613.977 721.677L679.942 721.677L679.942 757.527L680.85 757.527L680.85 721.677L746.816 721.677L746.816 757.527L747.724 757.527L747.724 721.677L798.45 721.677L798.45 721.009L747.724 721.009L747.724 672.433L798.45 672.433L798.45 671.764L747.724 671.764L747.724 623.194L798.45 623.194L798.45 622.525L747.724 622.525L747.724 573.948L798.45 573.948L798.45 573.28L747.724 573.28L747.724 524.704L798.45 524.704L798.45 524.035L747.724 524.035L747.724 475.459L798.45 475.459L798.45 474.791L747.724 474.791L747.724 426.219L798.45 426.219L798.45 425.551L747.724 425.551L747.724 376.976L798.45 376.976L798.45 376.308L747.724 376.308L747.724 337.45L746.816 337.45L746.816 376.308L680.85 376.308L680.85 337.45L679.942 337.45L679.942 376.308L613.977 376.308L613.977 337.45L613.069 337.45L613.069 376.308L547.102 376.308L547.102 337.45L546.194 337.45L546.194 376.308L480.228 376.308L480.228 337.45L479.32 337.45L479.32 376.308L413.355 376.308L413.355 337.45L412.447 337.45L412.447 376.308L346.48 376.308L346.48 337.45L345.572 337.45L345.572 376.308L279.606 376.308L279.606 337.45L278.698 337.45L278.698 376.308L227.974 376.308L227.974 376.976L278.698 376.976L278.698 425.551L227.974 425.551L227.974 426.219L278.698 426.219L278.698 474.791L227.974 474.791L227.974 475.459L278.698 475.459L278.698 524.035L227.974 524.035L227.974 524.704L278.698 524.704L278.698 573.28L227.974 573.28L227.974 573.948L278.698 573.948L278.698 622.525L227.974 622.525L227.974 623.194L278.698 623.194L278.698 671.764L227.974 671.764L227.974 672.433L278.698 672.433L278.698 721.009L227.974 721.009L227.974 721.677ZM746.816 376.976L680.85 376.976L680.85 425.551L746.816 425.551L746.816 376.976ZM746.816 426.219L680.85 426.219L680.85 474.791L746.816 474.791L746.816 426.219ZM746.816 475.459L680.85 475.459L680.85 524.035L746.816 524.035L746.816 475.459ZM746.816 524.704L680.85 524.704L680.85 573.28L746.816 573.28L746.816 524.704ZM746.816 573.948L680.85 573.948L680.85 622.525L746.816 622.525L746.816 573.948ZM746.816 623.194L680.85 623.194L680.85 671.764L746.816 671.764L746.816 623.194ZM746.816 672.433L680.85 672.433L680.85 721.009L746.816 721.009L746.816 672.433ZM679.942 672.433L679.942 721.009L613.977 721.009L613.977 672.433L679.942 672.433ZM679.942 623.194L679.942 671.764L613.977 671.764L613.977 623.194L679.942 623.194ZM679.942 573.948L679.942 622.525L613.977 622.525L613.977 573.948L679.942 573.948ZM679.942 524.704L679.942 573.28L613.977 573.28L613.977 524.704L679.942 524.704ZM679.942 475.459L679.942 524.035L613.977 524.035L613.977 475.459L679.942 475.459ZM679.942 426.219L679.942 474.791L613.977 474.791L613.977 426.219L679.942 426.219ZM679.942 376.976L679.942 425.551L613.977 425.551L613.977 376.976L679.942 376.976ZM613.069 376.976L547.102 376.976L547.102 425.551L613.069 425.551L613.069 376.976ZM613.069 426.219L547.102 426.219L547.102 474.791L613.069 474.791L613.069 426.219ZM613.069 475.459L547.102 475.459L547.102 524.035L613.069 524.035L613.069 475.459ZM613.069 524.704L547.102 524.704L547.102 573.28L613.069 573.28L613.069 524.704ZM613.069 573.948L547.102 573.948L547.102 622.525L613.069 622.525L613.069 573.948ZM613.069 623.194L547.102 623.194L547.102 671.764L613.069 671.764L613.069 623.194ZM613.069 672.433L547.102 672.433L547.102 721.009L613.069 721.009L613.069 672.433ZM546.194 672.433L546.194 721.009L480.228 721.009L480.228 672.433L546.194 672.433ZM546.194 623.194L546.194 671.764L480.228 671.764L480.228 623.194L546.194 623.194ZM546.194 573.948L546.194 622.525L480.228 622.525L480.228 573.948L546.194 573.948ZM546.194 524.704L546.194 573.28L480.228 573.28L480.228 524.704L546.194 524.704ZM546.194 475.459L546.194 524.035L480.228 524.035L480.228 475.459L546.194 475.459ZM546.194 426.219L546.194 474.791L480.228 474.791L480.228 426.219L546.194 426.219ZM546.194 376.976L546.194 425.551L480.228 425.551L480.228 376.976L546.194 376.976ZM479.32 376.976L413.355 376.976L413.355 425.551L479.32 425.551L479.32 376.976ZM479.32 426.219L413.355 426.219L413.355 474.791L479.32 474.791L479.32 426.219ZM479.32 475.459L413.355 475.459L413.355 524.035L479.32 524.035L479.32 475.459ZM479.32 524.704L413.355 524.704L413.355 573.28L479.32 573.28L479.32 524.704ZM479.32 573.948L413.354 573.948L413.354 622.525L479.32 622.525L479.32 573.948ZM479.32 623.194L413.354 623.194L413.354 671.764L479.32 671.764L479.32 623.194ZM479.32 672.433L413.354 672.433L413.354 721.009L479.32 721.009L479.32 672.433ZM412.447 672.433L412.447 721.009L346.48 721.009L346.48 672.433L412.447 672.433ZM412.447 623.194L412.447 671.764L346.48 671.764L346.48 623.194L412.447 623.194ZM412.447 573.948L412.447 622.525L346.48 622.525L346.48 573.948L412.447 573.948ZM412.447 524.704L412.447 573.28L346.48 573.28L346.48 524.704L412.447 524.704ZM412.447 475.459L412.447 524.035L346.48 524.035L346.48 475.459L412.447 475.459ZM412.447 426.219L412.447 474.791L346.48 474.791L346.48 426.219L412.447 426.219ZM412.447 376.976L412.447 425.551L346.48 425.551L346.48 376.976L412.447 376.976ZM345.572 376.976L279.606 376.976L279.606 425.551L345.572 425.551L345.572 376.976ZM345.572 426.219L279.606 426.219L279.606 474.791L345.572 474.791L345.572 426.219ZM345.572 475.459L279.606 475.459L279.606 524.035L345.572 524.035L345.572 475.459ZM345.572 524.704L279.606 524.704L279.606 573.28L345.572 573.28L345.572 524.704ZM345.572 573.948L279.606 573.948L279.606 622.525L345.572 622.525L345.572 573.948ZM345.572 623.194L279.606 623.194L279.606 671.764L345.572 671.764L345.572 623.194ZM345.572 672.433L279.606 672.433L279.606 721.009L345.572 721.009L345.572 672.433Z" fill="url(#paint4_radial_39_4)"/>
<g opacity="0.4" filter="url(#filter2_f_39_4)">
<path d="M-137.766 249.471C-191.554 344.174 -136.803 451.236 -15.4768 488.6C105.849 525.965 247.808 479.483 301.596 384.779C355.384 290.076 300.633 183.014 179.307 145.65C57.9807 108.286 -83.9775 154.768 -137.766 249.471Z" fill="url(#paint5_linear_39_4)" fill-opacity="0.23"/>
</g>
<g opacity="0.4" filter="url(#filter3_f_39_4)">
<path d="M-21.7442 721.743C109.944 629.255 157.262 508.391 83.943 451.785C10.6237 395.179 -155.568 424.267 -287.257 516.755C-418.945 609.243 -466.263 730.107 -392.944 786.713C-319.625 843.319 -153.433 814.231 -21.7442 721.743Z" fill="#8244FF"/>
</g>
</g>
</g>
<defs>
<filter id="filter0_f_39_4" x="565.219" y="-310.674" width="888.809" height="741.986" filterUnits="userSpaceOnUse" color-interpolation-filters="sRGB">
<feFlood flood-opacity="0" result="BackgroundImageFix"/>
<feBlend mode="normal" in="SourceGraphic" in2="BackgroundImageFix" result="shape"/>
<feGaussianBlur stdDeviation="97" result="effect1_foregroundBlur_39_4"/>
</filter>
<filter id="filter1_f_39_4" x="28.657" y="-618.764" width="1141.35" height="1009.99" filterUnits="userSpaceOnUse" color-interpolation-filters="sRGB">
<feFlood flood-opacity="0" result="BackgroundImageFix"/>
<feBlend mode="normal" in="SourceGraphic" in2="BackgroundImageFix" result="shape"/>
<feGaussianBlur stdDeviation="152" result="effect1_foregroundBlur_39_4"/>
</filter>
<filter id="filter2_f_39_4" x="-352.446" y="-61.263" width="868.723" height="756.776" filterUnits="userSpaceOnUse" color-interpolation-filters="sRGB">
<feFlood flood-opacity="0" result="BackgroundImageFix"/>
<feBlend mode="normal" in="SourceGraphic" in2="BackgroundImageFix" result="shape"/>
<feGaussianBlur stdDeviation="97" result="effect1_foregroundBlur_39_4"/>
</filter>
<filter id="filter3_f_39_4" x="-731.459" y="118.881" width="1153.92" height="1000.74" filterUnits="userSpaceOnUse" color-interpolation-filters="sRGB">
<feFlood flood-opacity="0" result="BackgroundImageFix"/>
<feBlend mode="normal" in="SourceGraphic" in2="BackgroundImageFix" result="shape"/>
<feGaussianBlur stdDeviation="152" result="effect1_foregroundBlur_39_4"/>
</filter>
<radialGradient id="paint0_radial_39_4" cx="0" cy="0" r="1" gradientUnits="userSpaceOnUse" gradientTransform="translate(1032.72 173.325) rotate(90) scale(159.283 216.311)">
<stop stop-color="#8244FF" stop-opacity="0.29"/>
<stop offset="1" stop-color="#8244FF" stop-opacity="0"/>
</radialGradient>
<radialGradient id="paint1_radial_39_4" cx="0" cy="0" r="1" gradientUnits="userSpaceOnUse" gradientTransform="translate(696.783 377.909) rotate(90) scale(159.283 216.311)">
<stop stop-color="#8244FF" stop-opacity="0.29"/>
<stop offset="1" stop-color="#8244FF" stop-opacity="0"/>
</radialGradient>
<linearGradient id="paint2_linear_39_4" x1="712.455" y1="135.268" x2="891.738" y2="-210.278" gradientUnits="userSpaceOnUse">
<stop stop-color="#F926AE"/>
<stop offset="0.21875" stop-color="#F926AE"/>
<stop offset="1" stop-color="#F926AE" stop-opacity="0"/>
</linearGradient>
<radialGradient id="paint3_radial_39_4" cx="0" cy="0" r="1" gradientUnits="userSpaceOnUse" gradientTransform="translate(235.381 300.117) scale(216.311 159.283)">
<stop stop-color="#8244FF" stop-opacity="0.29"/>
<stop offset="1" stop-color="#8244FF" stop-opacity="0"/>
</radialGradient>
<radialGradient id="paint4_radial_39_4" cx="0" cy="0" r="1" gradientUnits="userSpaceOnUse" gradientTransform="translate(513.212 547.489) scale(216.311 159.283)">
<stop stop-color="#8244FF" stop-opacity="0.29"/>
<stop offset="1" stop-color="#8244FF" stop-opacity="0"/>
</radialGradient>
<linearGradient id="paint5_linear_39_4" x1="183.698" y1="535.949" x2="-127.216" y2="238.446" gradientUnits="userSpaceOnUse">
<stop stop-color="#F926AE"/>
<stop offset="0.21875" stop-color="#F926AE"/>
<stop offset="1" stop-color="#F926AE" stop-opacity="0"/>
</linearGradient>
<clipPath id="clip0_39_4">
<rect width="1427.29" height="531.517" fill="white" transform="translate(13)"/>
</clipPath>
<clipPath id="clip1_39_4">
<rect width="1051" height="721.816" fill="white" transform="translate(0 1051) rotate(-90)"/>
</clipPath>
</defs>
</svg>
