<svg width="127" height="144" viewBox="0 0 127 144" fill="none" xmlns="http://www.w3.org/2000/svg">
<g clip-path="url(#clip0_24_261)">
<path d="M126.558 0L115.028 129.282L63.2018 143.663L11.5176 129.303L0 0H126.558Z" fill="#E44D26"/>
<path d="M63.2792 132.671L105.157 121.049L115.01 10.572H63.2792V132.671Z" fill="#F16529"/>
<path d="M40.8662 42.2892H63.2797V26.4307H23.5509L23.9301 30.6853L27.8242 74.3869H63.2797V58.5285H42.3141L40.8662 42.2892Z" fill="#EBEBEB"/>
<path d="M44.4368 82.3164H28.5322L30.7518 107.216L63.2068 116.234L63.2797 116.215V99.7151L63.2103 99.7335L45.5648 94.9646L44.4368 82.3164Z" fill="#EBEBEB"/>
<path d="M63.2247 74.3874H82.7346L80.8955 94.9546L63.2247 99.7284V116.227L95.7054 107.217L95.9435 104.538L99.6667 62.7875L100.054 58.5291H63.2247V74.3874Z" fill="white"/>
<path d="M63.2247 42.2505V42.2892H101.495L101.813 38.7247L102.535 30.6853L102.914 26.4307H63.2247V42.2505Z" fill="white"/>
</g>
<defs>
<clipPath id="clip0_24_261">
<rect width="127" height="144" fill="white"/>
</clipPath>
</defs>
</svg>
