<svg width="139" height="139" viewBox="0 0 139 139" fill="none" xmlns="http://www.w3.org/2000/svg">
<g clip-path="url(#clip0_24_279)">
<path d="M0 0H139V139H0V0Z" fill="#F7DF1E"/>
<path d="M36.5478 116.158L47.185 109.721C49.2371 113.359 51.1039 116.438 55.5815 116.438C59.8737 116.438 62.5799 114.759 62.5799 108.228V63.814H75.6426V108.413C75.6426 121.942 67.712 128.1 56.1419 128.1C45.6922 128.1 39.6265 122.688 36.5475 116.157" fill="black"/>
<path d="M82.7381 114.759L93.3738 108.601C96.1739 113.173 99.8129 116.532 106.25 116.532C111.663 116.532 115.114 113.826 115.114 110.093C115.114 105.615 111.569 104.028 105.597 101.417L102.332 100.016C92.9079 96.005 86.6562 90.9662 86.6562 80.3294C86.6562 70.5321 94.1204 63.0674 105.784 63.0674C114.089 63.0674 120.06 65.9603 124.352 73.5179L114.181 80.0493C111.942 76.0373 109.516 74.4513 105.784 74.4513C101.959 74.4513 99.5327 76.8773 99.5327 80.0493C99.5327 83.9679 101.959 85.5544 107.557 87.981L110.822 89.3802C121.925 94.1393 128.177 98.9902 128.177 109.907C128.177 121.664 118.94 128.101 106.53 128.101C94.4011 128.101 86.5633 122.317 82.7381 114.759Z" fill="black"/>
</g>
<defs>
<clipPath id="clip0_24_279">
<rect width="139" height="139" fill="white"/>
</clipPath>
</defs>
</svg>
